<svg xmlns="http://www.w3.org/2000/svg" viewBox="0 0 240 220" fill="none">
  <defs>
    <filter id="wc2" x="-20%" y="-20%" width="140%" height="140%">
      <feTurbulence type="fractalNoise" baseFrequency="0.8" numOctaves="2" seed="11" result="n"/>
      <feDisplacementMap in="SourceGraphic" in2="n" scale="1.4"/>
    </filter>
  </defs>
  <path d="M31 206c20-47 40-87 69-120 26-29 58-48 103-66" stroke="#6B5238" stroke-width="1.5" stroke-linecap="round" filter="url(#wc2)"/>
  <path d="M77 137c-10-4-19-8-29-14M92 118c-10-4-19-9-28-16M115 95c-10-4-18-10-26-18M145 75c-10-4-17-10-24-18" stroke="#7A8B63" stroke-width="1.2" stroke-linecap="round"/>
  <ellipse cx="52" cy="114" rx="11" ry="8" fill="#F1C7CF" opacity=".88"/>
  <ellipse cx="71" cy="95" rx="9" ry="7" fill="#B7C8F2" opacity=".88"/>
  <ellipse cx="96" cy="74" rx="10" ry="8" fill="#F0DFA0" opacity=".88"/>
  <ellipse cx="128" cy="55" rx="8" ry="6" fill="#C8B6E0" opacity=".88"/>
</svg>
