<svg xmlns="http://www.w3.org/2000/svg" viewBox="0 0 260 120" fill="none">
  <defs>
    <filter id="wc1" x="-20%" y="-20%" width="140%" height="140%">
      <feTurbulence type="fractalNoise" baseFrequency="0.9" numOctaves="2" seed="7" result="noise"/>
      <feDisplacementMap in="SourceGraphic" in2="noise" scale="1.2"/>
    </filter>
  </defs>
  <path d="M8 102C54 74 103 56 153 45c28-6 61-10 99-15" stroke="#6B5238" stroke-width="1.4" stroke-linecap="round" filter="url(#wc1)"/>
  <path d="M69 73c-5-8-10-15-16-22M91 65c-4-8-8-16-14-24M122 55c-4-8-7-15-12-23M149 48c-3-8-6-15-10-22M176 42c-2-8-5-15-8-22" stroke="#7A8B63" stroke-width="1.2" stroke-linecap="round"/>
  <circle cx="51" cy="49" r="7" fill="#F1C7CF" opacity=".9"/>
  <circle cx="76" cy="40" r="5" fill="#B7C8F2" opacity=".9"/>
  <circle cx="99" cy="30" r="6" fill="#F0DFA0" opacity=".9"/>
  <circle cx="127" cy="24" r="4.5" fill="#C8B6E0" opacity=".9"/>
</svg>
